<svg id="visual" viewBox="0 0 900 600" width="900" height="600" xmlns="http://www.w3.org/2000/svg" xmlns:xlink="http://www.w3.org/1999/xlink" version="1.1"><path d="M0 109L13.7 105C27.3 101 54.7 93 82 88C109.3 83 136.7 81 163.8 86C191 91 218 103 245.2 107C272.3 111 299.7 107 327 115C354.3 123 381.7 143 409 144C436.3 145 463.7 127 491 116C518.3 105 545.7 101 573 100C600.3 99 627.7 101 654.8 106C682 111 709 119 736.2 121C763.3 123 790.7 119 818 134C845.3 149 872.7 183 886.3 200L900 217L900 0L886.3 0C872.7 0 845.3 0 818 0C790.7 0 763.3 0 736.2 0C709 0 682 0 654.8 0C627.7 0 600.3 0 573 0C545.7 0 518.3 0 491 0C463.7 0 436.3 0 409 0C381.7 0 354.3 0 327 0C299.7 0 272.3 0 245.2 0C218 0 191 0 163.8 0C136.7 0 109.3 0 82 0C54.7 0 27.3 0 13.7 0L0 0Z" fill="#000000"></path><path d="M0 241L13.7 247C27.3 253 54.7 265 82 273C109.3 281 136.7 285 163.8 283C191 281 218 273 245.2 268C272.3 263 299.7 261 327 253C354.3 245 381.7 231 409 232C436.3 233 463.7 249 491 262C518.3 275 545.7 285 573 285C600.3 285 627.7 275 654.8 256C682 237 709 209 736.2 197C763.3 185 790.7 189 818 208C845.3 227 872.7 261 886.3 278L900 295L900 215L886.3 198C872.7 181 845.3 147 818 132C790.7 117 763.3 121 736.2 119C709 117 682 109 654.8 104C627.7 99 600.3 97 573 98C545.7 99 518.3 103 491 114C463.7 125 436.3 143 409 142C381.7 141 354.3 121 327 113C299.7 105 272.3 109 245.2 105C218 101 191 89 163.8 84C136.7 79 109.3 81 82 86C54.7 91 27.3 99 13.7 103L0 107Z" fill="#0a0a0a"></path><path d="M0 253L13.7 263C27.3 273 54.7 293 82 302C109.3 311 136.7 309 163.8 304C191 299 218 291 245.2 286C272.3 281 299.7 279 327 271C354.3 263 381.7 249 409 252C436.3 255 463.7 275 491 288C518.3 301 545.7 307 573 307C600.3 307 627.7 301 654.8 281C682 261 709 227 736.2 217C763.3 207 790.7 221 818 244C845.3 267 872.7 299 886.3 315L900 331L900 293L886.3 276C872.7 259 845.3 225 818 206C790.7 187 763.3 183 736.2 195C709 207 682 235 654.8 254C627.7 273 600.3 283 573 283C545.7 283 518.3 273 491 260C463.7 247 436.3 231 409 230C381.7 229 354.3 243 327 251C299.7 259 272.3 261 245.2 266C218 271 191 279 163.8 281C136.7 283 109.3 279 82 271C54.7 263 27.3 251 13.7 245L0 239Z" fill="#121212"></path><path d="M0 307L13.7 313C27.3 319 54.7 331 82 339C109.3 347 136.7 351 163.8 347C191 343 218 331 245.2 321C272.3 311 299.7 303 327 297C354.3 291 381.7 287 409 297C436.3 307 463.7 331 491 340C518.3 349 545.7 343 573 341C600.3 339 627.7 341 654.8 324C682 307 709 271 736.2 262C763.3 253 790.7 271 818 291C845.3 311 872.7 333 886.3 344L900 355L900 329L886.3 313C872.7 297 845.3 265 818 242C790.7 219 763.3 205 736.2 215C709 225 682 259 654.8 279C627.7 299 600.3 305 573 305C545.7 305 518.3 299 491 286C463.7 273 436.3 253 409 250C381.7 247 354.3 261 327 269C299.7 277 272.3 279 245.2 284C218 289 191 297 163.8 302C136.7 307 109.3 309 82 300C54.7 291 27.3 271 13.7 261L0 251Z" fill="#181818"></path><path d="M0 361L13.7 367C27.3 373 54.7 385 82 393C109.3 401 136.7 405 163.8 399C191 393 218 377 245.2 368C272.3 359 299.7 357 327 357C354.3 357 381.7 359 409 367C436.3 375 463.7 389 491 393C518.3 397 545.7 391 573 394C600.3 397 627.7 409 654.8 400C682 391 709 361 736.2 351C763.3 341 790.7 351 818 362C845.3 373 872.7 385 886.3 391L900 397L900 353L886.3 342C872.7 331 845.3 309 818 289C790.7 269 763.3 251 736.2 260C709 269 682 305 654.8 322C627.7 339 600.3 337 573 339C545.7 341 518.3 347 491 338C463.7 329 436.3 305 409 295C381.7 285 354.3 289 327 295C299.7 301 272.3 309 245.2 319C218 329 191 341 163.8 345C136.7 349 109.3 345 82 337C54.7 329 27.3 317 13.7 311L0 305Z" fill="#1d1d1d"></path><path d="M0 391L13.7 398C27.3 405 54.7 419 82 428C109.3 437 136.7 441 163.8 435C191 429 218 413 245.2 407C272.3 401 299.7 405 327 407C354.3 409 381.7 409 409 412C436.3 415 463.7 421 491 421C518.3 421 545.7 415 573 422C600.3 429 627.7 449 654.8 442C682 435 709 401 736.2 389C763.3 377 790.7 387 818 398C845.3 409 872.7 421 886.3 427L900 433L900 395L886.3 389C872.7 383 845.3 371 818 360C790.7 349 763.3 339 736.2 349C709 359 682 389 654.8 398C627.7 407 600.3 395 573 392C545.7 389 518.3 395 491 391C463.7 387 436.3 373 409 365C381.7 357 354.3 355 327 355C299.7 355 272.3 357 245.2 366C218 375 191 391 163.8 397C136.7 403 109.3 399 82 391C54.7 383 27.3 371 13.7 365L0 359Z" fill="#222222"></path><path d="M0 415L13.7 423C27.3 431 54.7 447 82 457C109.3 467 136.7 471 163.8 468C191 465 218 455 245.2 453C272.3 451 299.7 457 327 456C354.3 455 381.7 447 409 447C436.3 447 463.7 455 491 459C518.3 463 545.7 463 573 470C600.3 477 627.7 491 654.8 482C682 473 709 441 736.2 429C763.3 417 790.7 425 818 435C845.3 445 872.7 457 886.3 463L900 469L900 431L886.3 425C872.7 419 845.3 407 818 396C790.7 385 763.3 375 736.2 387C709 399 682 433 654.8 440C627.7 447 600.3 427 573 420C545.7 413 518.3 419 491 419C463.7 419 436.3 413 409 410C381.7 407 354.3 407 327 405C299.7 403 272.3 399 245.2 405C218 411 191 427 163.8 433C136.7 439 109.3 435 82 426C54.7 417 27.3 403 13.7 396L0 389Z" fill="#282828"></path><path d="M0 451L13.7 457C27.3 463 54.7 475 82 482C109.3 489 136.7 491 163.8 491C191 491 218 489 245.2 490C272.3 491 299.7 495 327 494C354.3 493 381.7 487 409 488C436.3 489 463.7 497 491 496C518.3 495 545.7 485 573 487C600.3 489 627.7 503 654.8 495C682 487 709 457 736.2 450C763.3 443 790.7 459 818 469C845.3 479 872.7 483 886.3 485L900 487L900 467L886.3 461C872.7 455 845.3 443 818 433C790.7 423 763.3 415 736.2 427C709 439 682 471 654.8 480C627.7 489 600.3 475 573 468C545.7 461 518.3 461 491 457C463.7 453 436.3 445 409 445C381.7 445 354.3 453 327 454C299.7 455 272.3 449 245.2 451C218 453 191 463 163.8 466C136.7 469 109.3 465 82 455C54.7 445 27.3 429 13.7 421L0 413Z" fill="#2e2e2e"></path><path d="M0 481L13.7 486C27.3 491 54.7 501 82 505C109.3 509 136.7 507 163.8 506C191 505 218 505 245.2 508C272.3 511 299.7 517 327 516C354.3 515 381.7 507 409 506C436.3 505 463.7 511 491 512C518.3 513 545.7 509 573 512C600.3 515 627.7 525 654.8 516C682 507 709 479 736.2 473C763.3 467 790.7 483 818 494C845.3 505 872.7 511 886.3 514L900 517L900 485L886.3 483C872.7 481 845.3 477 818 467C790.7 457 763.3 441 736.2 448C709 455 682 485 654.8 493C627.7 501 600.3 487 573 485C545.7 483 518.3 493 491 494C463.7 495 436.3 487 409 486C381.7 485 354.3 491 327 492C299.7 493 272.3 489 245.2 488C218 487 191 489 163.8 489C136.7 489 109.3 487 82 480C54.7 473 27.3 461 13.7 455L0 449Z" fill="#343434"></path><path d="M0 517L13.7 521C27.3 525 54.7 533 82 533C109.3 533 136.7 525 163.8 522C191 519 218 521 245.2 527C272.3 533 299.7 543 327 541C354.3 539 381.7 525 409 524C436.3 523 463.7 535 491 540C518.3 545 545.7 543 573 543C600.3 543 627.7 545 654.8 536C682 527 709 507 736.2 505C763.3 503 790.7 519 818 526C845.3 533 872.7 531 886.3 530L900 529L900 515L886.3 512C872.7 509 845.3 503 818 492C790.7 481 763.3 465 736.2 471C709 477 682 505 654.8 514C627.7 523 600.3 513 573 510C545.7 507 518.3 511 491 510C463.7 509 436.3 503 409 504C381.7 505 354.3 513 327 514C299.7 515 272.3 509 245.2 506C218 503 191 503 163.8 504C136.7 505 109.3 507 82 503C54.7 499 27.3 489 13.7 484L0 479Z" fill="#3a3a3a"></path><path d="M0 541L13.7 545C27.3 549 54.7 557 82 558C109.3 559 136.7 553 163.8 552C191 551 218 555 245.2 558C272.3 561 299.7 563 327 561C354.3 559 381.7 553 409 553C436.3 553 463.7 559 491 562C518.3 565 545.7 565 573 564C600.3 563 627.7 561 654.8 554C682 547 709 535 736.2 535C763.3 535 790.7 547 818 553C845.3 559 872.7 559 886.3 559L900 559L900 527L886.3 528C872.7 529 845.3 531 818 524C790.7 517 763.3 501 736.2 503C709 505 682 525 654.8 534C627.7 543 600.3 541 573 541C545.7 541 518.3 543 491 538C463.7 533 436.3 521 409 522C381.7 523 354.3 537 327 539C299.7 541 272.3 531 245.2 525C218 519 191 517 163.8 520C136.7 523 109.3 531 82 531C54.7 531 27.3 523 13.7 519L0 515Z" fill="#404040"></path><path d="M0 601L13.7 601C27.3 601 54.7 601 82 601C109.3 601 136.7 601 163.8 601C191 601 218 601 245.2 601C272.3 601 299.7 601 327 601C354.3 601 381.7 601 409 601C436.3 601 463.7 601 491 601C518.3 601 545.7 601 573 601C600.3 601 627.7 601 654.8 601C682 601 709 601 736.2 601C763.3 601 790.7 601 818 601C845.3 601 872.7 601 886.3 601L900 601L900 557L886.3 557C872.7 557 845.3 557 818 551C790.7 545 763.3 533 736.2 533C709 533 682 545 654.8 552C627.7 559 600.3 561 573 562C545.7 563 518.3 563 491 560C463.7 557 436.3 551 409 551C381.7 551 354.3 557 327 559C299.7 561 272.3 559 245.2 556C218 553 191 549 163.8 550C136.7 551 109.3 557 82 556C54.7 555 27.3 547 13.7 543L0 539Z" fill="#464646"></path></svg>